# xmcd
#
# Track frame offsets: 
#        150
#        20835
#        30975
#        47823
#        65190
#        84459
#        106008
#        125763
#        138945
#        163272
#        185652
#        198066
#        218295
#        235491
#        244089
#        258249
#        279237
#        293904
#        314640
#        335376
#
# Disc length: 4791 seconds
#
# Revision: 0
# Processed by: cddbd v1.5.2PL0 Copyright (c) Steve Scherf et al.
# Submitted via: ExactAudioCopy v0.95b4
#
DISCID=2612b514
DTITLE=Various Artist - Remo-con The Best Works
DYEAR=2007
DGENRE=Trance
TTITLE0=Remo-con - Cold Front (Original Mix)
TTITLE1=Remo-con - Southern Wind
TTITLE2=Remo-con and Julia Jr. - Engrave In My Mind
TTITLE3=ayumi hamasaki - evolution (dj Remo-con Remix)
TTITLE4=Mr.T - desolation (dj Remo-con ReMixx)
TTITLE5=Johan Gielen - Triple Cross (Remo-con vs. Castalia Remix)
TTITLE6=Remo-con - Shamila
TTITLE7=system F - Q-rious (Remo-con vs. a well of flower Remix)
TTITLE8=Nish - Blue Sunshine (Remo-con Remix)
TTITLE9=Remo-con - Streams (Unreleased Own Edit)
TTITLE10=Remo-con - Not Interested
TTITLE11=Remo-con - G-Sigh (Original Mix)
TTITLE12=D.J.SETUP - Giudecca (Remo-con RMX size M)
TTITLE13=Remo-con - Narky Light
TTITLE14=Nish - Vinylize Anthem 2007 (Remo-con Remix)
TTITLE15=Remo-con - Atavism (Original Mix)
TTITLE16=Remo-con - Pollinosis (Extended Mix)
TTITLE17=Overhead Champion - Beat! (Remo-con Remix)
TTITLE18=Ami Suzuki - Delightful (Remo-con Mix)
TTITLE19=Strike - Inspiration (Remo-con vs. Toshio Ueki Remix)
EXTD=
EXTT0=
EXTT1=
EXTT2=
EXTT3=
EXTT4=
EXTT5=
EXTT6=
EXTT7=
EXTT8=
EXTT9=
EXTT10=
EXTT11=
EXTT12=
EXTT13=
EXTT14=
EXTT15=
EXTT16=
EXTT17=
EXTT18=
EXTT19=
PLAYORDER=
